<svg version="1.1" xmlns="http://www.w3.org/2000/svg" style="display: block;" viewBox="0 0 2048 2048" width="1024" height="1024">
<path transform="translate(0,0)" fill="rgb(54,205,211)" d="M 0 0 L 2048 0 L 2048 2048 L 0 2048 L 0 0 z"/>
<path transform="translate(0,0)" fill="rgb(14,153,166)" d="M 1576.9 1632.74 L 1647.14 1632.89 C 1631.37 1652.21 1613.85 1670.27 1597.53 1689.16 C 1573.91 1716.5 1551.55 1744.41 1525.68 1769.74 C 1538.62 1771.73 1551.83 1772.25 1564.87 1773.28 A 3993.93 3993.93 0 0 1 1629 1778.79 C 1661.99 1782 1821.64 1800.38 1838.13 1822.39 C 1839.55 1824.28 1840.57 1826.6 1840.03 1829.01 C 1839.06 1833.3 1835.25 1835.32 1831.69 1837.31 C 1782.97 1864.61 1602.65 1875.43 1538.86 1879.34 A 8746.3 8746.3 0 0 1 538.689 1880.5 A 3406.2 3406.2 0 0 1 365.62 1866.37 C 322.693 1861.82 278.009 1857.34 236.449 1845.25 C 227.963 1842.78 209.264 1838.42 204.718 1830.18 C 203.961 1828.8 203.872 1827.24 204.273 1825.71 C 205.852 1819.71 215.018 1815.93 220.226 1813.86 C 265.841 1795.71 343.434 1787.66 393.55 1781.88 C 407.158 1780.32 463.27 1776.22 471.862 1771.78 C 482.907 1775.71 492.359 1778.73 504.084 1779.54 C 539.037 1781.95 579.923 1779.6 615.423 1779.35 L 804.732 1779.18 L 1428.9 1779.49 C 1441.05 1779.49 1453.86 1779.9 1465.9 1778.25 C 1491.89 1774.69 1519.13 1759.87 1537.48 1741.34 C 1569.72 1708.8 1577.16 1677.19 1576.9 1632.74 z"/>
<path transform="translate(0,0)" fill="rgb(14,153,166)" d="M 406.147 1631.34 C 397.465 1625.84 389.054 1614.95 382.122 1607.24 A 869.276 869.276 0 0 1 163.513 972.555 C 172.661 807.304 231.601 640.301 333.723 509.542 C 355.542 481.604 378.767 455.229 405.171 431.558 L 405.986 1246.67 L 405.834 1484.27 C 405.951 1533.24 407.012 1582.39 406.147 1631.34 z"/>
<path transform="translate(0,0)" fill="rgb(7,24,50)" d="M 693.107 226.068 C 706.119 216.759 733.488 208.843 749.399 203.331 C 875.075 159.792 1026.36 147.812 1157.48 169.533 C 1263.12 187.033 1372.74 224.362 1464.81 279.527 C 1496.66 298.61 1525.95 319.984 1555.46 342.445 C 1604.41 379.708 1647.39 420.748 1687.26 467.541 C 1699.2 481.548 1711.19 495.607 1721.89 510.594 A 894.145 894.145 0 0 1 1876 1177.36 C 1869.75 1214.72 1860.04 1251.53 1850.32 1288.1 C 1846.01 1304.29 1840.12 1321.13 1837.2 1337.58 L 1837.17 1500.44 C 1837.19 1522.62 1839.71 1563.68 1834.96 1583.9 C 1832.28 1595.3 1825.78 1605.71 1817.5 1613.9 C 1810 1621.33 1800.65 1627.27 1790.42 1630.09 C 1771.03 1635.43 1747.65 1633.04 1727.6 1632.98 A 6761.89 6761.89 0 0 0 1647.14 1632.89 L 1576.9 1632.74 C 1577.16 1677.19 1569.72 1708.8 1537.48 1741.34 C 1519.13 1759.87 1491.89 1774.69 1465.9 1778.25 C 1453.86 1779.9 1441.05 1779.49 1428.9 1779.49 L 804.732 1779.18 L 615.423 1779.35 C 579.923 1779.6 539.037 1781.95 504.084 1779.54 C 492.359 1778.73 482.907 1775.71 471.862 1771.78 A 106.742 106.742 0 0 1 439.128 1748.88 C 403.007 1712.47 405.809 1678.4 406.147 1631.34 C 407.012 1582.39 405.951 1533.24 405.834 1484.27 L 405.986 1246.67 L 405.171 431.558 L 405.008 367.52 C 404.859 326.577 403.646 289.672 434.291 258.155 A 105.167 105.167 0 0 1 485.283 228.995 C 509.773 223.041 538.009 226.235 563.184 226.275 A 9518.16 9518.16 0 0 0 693.107 226.068 z"/>
<path transform="translate(0,0)" fill="rgb(33,134,91)" d="M 1447.06 369.572 C 1468 392.429 1491.19 413.958 1513.23 435.805 C 1523.14 445.627 1533.54 455.225 1542.49 465.948 L 1462 466.656 C 1445.68 466.804 1429.11 467.688 1412.82 466.825 C 1424.09 465.715 1435.65 466.098 1446.97 465.995 L 1447.06 369.572 z"/>
<path transform="translate(0,0)" fill="rgb(51,207,151)" d="M 1347.04 267.923 C 1356.43 279.425 1368.02 289.759 1378.61 300.183 A 4780.78 4780.78 0 0 1 1423.73 345.289 C 1431.5 353.092 1440.53 360.732 1447.06 369.572 L 1446.97 465.995 C 1435.65 466.098 1424.09 465.715 1412.82 466.825 C 1390.74 467.112 1368.64 466.961 1346.55 466.993 C 1345.71 400.7 1346.86 334.234 1347.04 267.923 z"/>
<path transform="translate(0,0)" fill="rgb(236,175,158)" d="M 791.362 1378.74 C 786.649 1374.21 781.826 1369.72 777.343 1364.96 C 772.489 1359.81 766.55 1352.19 767.073 1344.67 C 767.493 1338.61 771.145 1332.88 776.956 1330.83 C 788.439 1326.78 805.746 1329.53 817.999 1329.57 L 929.234 1329.68 C 946.397 1329.73 970.62 1331.86 986.719 1328.77 C 993.504 1327.47 999.971 1323.27 1004.89 1318.54 C 1010.66 1313 1011.98 1306.75 1012.84 1299.04 C 1014.05 1288.27 1013.36 1276.93 1013.32 1266.09 L 1013.14 1209.31 L 1013.09 1014.33 C 1013.14 1000.62 1012.65 988.587 1023.48 978.389 C 1035.53 967.043 1051.64 969.438 1066.77 969.852 C 1068.04 1049.26 1066.79 1128.84 1066.82 1208.26 L 1066.71 1290.41 C 1066.59 1304.65 1067.42 1319.87 1065.11 1333.9 A 56.634 56.634 0 0 1 1049.74 1364.66 C 1042.71 1371.88 1035.77 1375.02 1026.03 1376.76 C 1006.47 1380.25 964.58 1378.17 943.052 1378.2 C 893.703 1378.29 844.239 1379.28 794.909 1378.91 C 793.72 1378.9 792.548 1378.82 791.362 1378.74 z"/>
<path transform="translate(0,0)" fill="rgb(202,201,199)" d="M 1447.93 492.077 L 1554.77 491.996 C 1552.42 544.823 1554.01 598.332 1554.03 651.241 L 1554.51 944.047 L 1448.03 944.292 C 1446.98 838.893 1448.57 733.37 1448.56 627.955 L 1448.7 545.052 C 1448.72 527.45 1449.28 509.628 1447.93 492.077 z"/>
<path transform="translate(0,0)" fill="rgb(202,201,199)" d="M 1458.36 1632.78 A 3573 3573 0 0 1 1551.48 1632.31 C 1551.71 1667.49 1545.1 1697.26 1519.58 1723.19 C 1496.04 1747.11 1467.31 1753.5 1434.79 1753.58 L 582.232 1753.33 C 597.25 1736.59 608.677 1720.23 613.451 1697.86 C 634.33 1696.3 656.137 1697.47 677.107 1697.44 L 807.942 1697.6 L 1222.03 1697.82 L 1343.03 1697.84 C 1363.94 1697.86 1386.61 1699.69 1407.32 1696.99 C 1420.33 1695.3 1432.65 1689.78 1442 1680.46 C 1455.54 1666.99 1458.57 1651.17 1458.36 1632.78 z"/>
<path transform="translate(0,0)" fill="rgb(51,207,151)" d="M 555.991 251.682 L 590.343 251.951 L 590.216 1215.44 L 590.186 1536.37 L 590.147 1633.78 C 590.142 1650.53 591.297 1668.07 589.591 1684.69 C 587.8 1702.13 579.914 1717.73 567.585 1730.15 A 77.1616 77.1616 0 0 1 512.007 1753.17 C 490.872 1752.93 471.177 1744.78 456.443 1729.58 A 88.4056 88.4056 0 0 1 432.37 1679.83 C 442.906 1685.12 454.608 1690.67 466.584 1690.9 C 489.581 1691.34 512.062 1678.61 527.881 1662.71 A 93.7469 93.7469 0 0 0 554.794 1606.2 C 556.458 1590.51 555.505 1573.81 555.547 1558.01 L 555.722 1472.07 L 555.698 1185.6 L 555.991 251.682 z"/>
<path transform="translate(0,0)" fill="rgb(188,46,55)" d="M 1683.75 969.826 C 1701.19 968.848 1718.82 969.254 1736.29 969.181 C 1751.22 969.118 1769.15 967.371 1783.68 970.911 C 1788.53 972.094 1792.86 974.5 1796.63 977.759 C 1804.25 984.349 1810.33 994.049 1810.88 1004.27 C 1811.69 1019.43 1811.2 1034.8 1811.17 1049.98 L 1811.03 1130.89 L 1811.23 1370.11 L 1811.08 1503.65 C 1811.09 1525.44 1813.12 1548.85 1810.63 1570.41 C 1809.54 1579.87 1805.01 1588.99 1798.62 1596 C 1791.19 1604.13 1782.34 1607.89 1771.4 1608.22 C 1720.5 1609.74 1669.07 1608.21 1618.12 1608.17 L 1295.12 1607.76 L 1118.95 1607.97 L 1065.13 1608.08 C 1054.49 1608.1 1043.45 1608.7 1032.88 1607.46 C 1021.72 1606.16 1013.6 1599.91 1005.73 1592.38 C 994.078 1581.24 983.401 1569.1 972.108 1557.61 C 989.67 1558.05 1007.58 1557.13 1025.18 1557.01 A 7704.1 7704.1 0 0 1 1156.22 1556.63 L 1549.32 1556.98 L 1670.85 1557.02 C 1690.01 1557.07 1711.77 1558.91 1730.55 1556.89 C 1736.25 1556.28 1742.69 1553.46 1746.7 1549.3 C 1750.63 1545.22 1751.03 1536.51 1751.38 1530.93 C 1752.49 1513.24 1751.71 1495.02 1751.79 1477.26 L 1751.5 1347.47 L 1751.88 970.151 C 1729.4 970.261 1706.12 971.498 1683.75 969.826 z"/>
<path transform="translate(0,0)" fill="rgb(165,223,178)" d="M 432.37 1679.83 C 430.913 1668.95 431.549 1657.16 431.447 1646.15 L 431.114 1581.76 L 430.908 1370.29 L 430.27 611.28 L 429.95 405.782 L 429.991 351.331 C 429.991 340.633 429.131 329.004 430.958 318.49 C 433.732 302.529 440.753 287.583 452.233 276.055 C 481.16 247.005 518.501 251.597 555.991 251.682 L 555.698 1185.6 L 555.722 1472.07 L 555.547 1558.01 C 555.505 1573.81 556.458 1590.51 554.794 1606.2 A 93.7469 93.7469 0 0 1 527.881 1662.71 C 512.062 1678.61 489.581 1691.34 466.584 1690.9 C 454.608 1690.67 442.906 1685.12 432.37 1679.83 z"/>
<path transform="translate(0,0)" fill="rgb(14,153,166)" d="M 693.107 226.068 C 706.119 216.759 733.488 208.843 749.399 203.331 C 875.075 159.792 1026.36 147.812 1157.48 169.533 C 1263.12 187.033 1372.74 224.362 1464.81 279.527 C 1496.66 298.61 1525.95 319.984 1555.46 342.445 C 1604.41 379.708 1647.39 420.748 1687.26 467.541 C 1699.2 481.548 1711.19 495.607 1721.89 510.594 A 894.145 894.145 0 0 1 1876 1177.36 C 1869.75 1214.72 1860.04 1251.53 1850.32 1288.1 C 1846.01 1304.29 1840.12 1321.13 1837.2 1337.58 C 1837.21 1337.34 1837.22 1337.09 1837.22 1336.85 L 1836.99 1102.23 L 1836.97 1042.02 C 1836.97 1025.59 1838.08 1008.16 1834.68 992.021 C 1832.41 981.262 1826.14 971.357 1818.38 963.68 C 1809.99 955.396 1798.93 948.857 1787.37 946.321 C 1767.39 941.938 1739.52 944.434 1718.64 944.406 L 1581.09 944.313 C 1578.53 834.442 1580.44 724.219 1580.55 614.303 L 1580.64 527.233 C 1580.69 509.399 1581.65 491.04 1579.96 473.284 C 1579.86 472.267 1579.8 471.194 1579.61 470.185 C 1578.68 465.244 1572.98 459.435 1569.64 455.692 C 1553.89 438.016 1536.34 421.593 1519.61 404.836 L 1440 324.615 L 1378.21 262.585 C 1365.61 250.12 1353.39 236.522 1338.86 226.31 C 1318.41 225.361 1297.69 225.998 1277.22 226.024 L 1166.81 226.185 L 846.635 226.403 C 795.54 226.344 744.17 227.429 693.107 226.068 z"/>
<path transform="translate(0,0)" fill="rgb(237,72,70)" d="M 1066.77 969.852 L 1488.16 970.053 L 1619.09 969.832 C 1640.33 969.779 1662.63 968.384 1683.75 969.826 C 1706.12 971.498 1729.4 970.261 1751.88 970.151 L 1751.5 1347.47 L 1751.79 1477.26 C 1751.71 1495.02 1752.49 1513.24 1751.38 1530.93 C 1751.03 1536.51 1750.63 1545.22 1746.7 1549.3 C 1742.69 1553.46 1736.25 1556.28 1730.55 1556.89 C 1711.77 1558.91 1690.01 1557.07 1670.85 1557.02 L 1549.32 1556.98 L 1156.22 1556.63 A 7704.1 7704.1 0 0 0 1025.18 1557.01 C 1007.58 1557.13 989.67 1558.05 972.108 1557.61 L 877.843 1463.87 C 848.952 1435.59 819.254 1408.02 791.362 1378.74 C 792.548 1378.82 793.72 1378.9 794.909 1378.91 C 844.239 1379.28 893.703 1378.29 943.052 1378.2 C 964.58 1378.17 1006.47 1380.25 1026.03 1376.76 C 1035.77 1375.02 1042.71 1371.88 1049.74 1364.66 A 56.634 56.634 0 0 0 1065.11 1333.9 C 1067.42 1319.87 1066.59 1304.65 1066.71 1290.41 L 1066.82 1208.26 C 1066.79 1128.84 1068.04 1049.26 1066.77 969.852 z"/>
<path transform="translate(0,0)" fill="rgb(7,24,50)" d="M 1477.33 1061.51 L 1489.11 1061.48 L 1488.86 1225.05 L 1636.96 1225.24 C 1637.11 1267.82 1636.4 1310.51 1637.65 1353.07 L 1487.74 1352.96 A 11498.6 11498.6 0 0 1 1488.07 1498.36 C 1445.66 1497.53 1403.17 1498.07 1360.75 1498.07 C 1358.22 1498.16 1355.99 1498.18 1353.48 1497.79 C 1352.31 1481.4 1353.06 1464.52 1353.02 1448.08 L 1352.72 1352.85 L 1203.18 1352.93 A 4248.08 4248.08 0 0 1 1203.95 1224.83 L 1352.88 1224.98 L 1353.41 1061.74 L 1477.33 1061.51 z"/>
<path transform="translate(0,0)" fill="rgb(54,205,211)" d="M 1227.68 1310.09 C 1277.41 1311.21 1327.36 1309.05 1377 1310.71 L 1377.16 1328.32 A 14537.6 14537.6 0 0 1 1227.49 1328.39 C 1227.46 1322.29 1227.61 1316.18 1227.68 1310.09 z"/>
<path transform="translate(0,0)" fill="rgb(54,205,211)" d="M 1601.34 1249.97 C 1604.48 1250.01 1607.77 1249.71 1610.71 1250.84 C 1612.16 1259.94 1611.35 1270.08 1611.34 1279.33 L 1611.48 1328.1 C 1562.43 1328.09 1513.12 1327.26 1464.1 1328.56 C 1464.01 1376.86 1464.53 1425.26 1463.61 1473.55 A 5255.25 5255.25 0 0 1 1377.75 1473.79 L 1377.76 1462.13 A 4204.79 4204.79 0 0 0 1444.61 1460.92 A 4228.39 4228.39 0 0 0 1445.83 1310.16 L 1600.12 1310.56 C 1600.61 1291.01 1597.72 1269.16 1601.34 1249.97 z"/>
<path transform="translate(0,0)" fill="rgb(254,254,254)" d="M 1377.6 1085.96 A 6724.27 6724.27 0 0 1 1447.58 1086.16 L 1463.92 1086.53 L 1464.32 1249.88 L 1601.34 1249.97 C 1597.72 1269.16 1600.61 1291.01 1600.12 1310.56 L 1445.83 1310.16 A 4228.39 4228.39 0 0 1 1444.61 1460.92 A 4204.79 4204.79 0 0 1 1377.76 1462.13 A 9420.12 9420.12 0 0 0 1377.16 1328.32 L 1377 1310.71 C 1327.36 1309.05 1277.41 1311.21 1227.68 1310.09 C 1228.22 1290.16 1227.81 1270.12 1228.05 1250.18 C 1277.7 1248.89 1327.63 1249.93 1377.31 1249.91 C 1378.57 1195.33 1377.67 1140.56 1377.6 1085.96 z"/>
<path transform="translate(0,0)" fill="rgb(54,205,211)" d="M 1447.58 1086.16 L 1463.92 1086.53 L 1464.32 1249.88 L 1446.95 1249.86 C 1446.98 1195.46 1445.36 1140.49 1447.58 1086.16 z"/>
<path transform="translate(0,0)" fill="rgb(254,254,254)" d="M 615.346 251.609 L 957.642 251.691 A 29881.5 29881.5 0 0 1 1321.88 251.798 L 1322.03 396.664 L 1321.75 448.93 C 1321.7 458.867 1321.12 469.276 1322.07 479.158 C 1322.43 482.869 1323.42 485.483 1325.95 488.229 C 1327.68 490.109 1329.2 490.947 1331.76 491.355 C 1343.51 493.229 1357.02 491.923 1368.99 491.91 A 4964.24 4964.24 0 0 1 1447.93 492.077 C 1449.28 509.628 1448.72 527.45 1448.7 545.052 L 1448.56 627.955 C 1448.57 733.37 1446.98 838.893 1448.03 944.292 L 1174.53 944.769 L 1083.99 944.657 C 1069.13 944.67 1053.17 943.372 1038.5 945.29 C 1026.39 946.871 1014.2 951.295 1005.46 960.077 C 997.511 968.071 990.442 980.044 988.331 991.153 C 986.315 1001.76 987.245 1013.32 987.273 1024.09 L 987.282 1070.99 A 13853.9 13853.9 0 0 0 987.72 1253.25 C 987.787 1260.49 989.741 1293.6 987.42 1298.71 C 985.506 1302.92 973.845 1302.89 969.526 1302.98 C 923.61 1303.93 877.424 1302.72 831.487 1302.6 C 814.82 1302.55 791.979 1300.51 776.031 1303.34 C 768.149 1304.75 760.178 1308.79 754.519 1314.47 A 43.7361 43.7361 0 0 0 741.593 1345.39 C 741.713 1367.56 759.463 1384.19 774.365 1398.29 C 810.294 1432.28 844.672 1467.68 879.602 1502.69 C 893.91 1517.03 908.886 1530.68 923.175 1545.04 A 4599.92 4599.92 0 0 0 971.114 1593.35 C 981.96 1604.15 992.389 1616.64 1005.64 1624.54 C 1012.52 1628.64 1020.54 1631.88 1028.54 1632.66 C 1045.3 1634.29 1062.82 1633.24 1079.69 1633.22 L 1174.42 1633.06 L 1458.36 1632.78 C 1458.57 1651.17 1455.54 1666.99 1442 1680.46 C 1432.65 1689.78 1420.33 1695.3 1407.32 1696.99 C 1386.61 1699.69 1363.94 1697.86 1343.03 1697.84 L 1222.03 1697.82 L 807.942 1697.6 L 677.107 1697.44 C 656.137 1697.47 634.33 1696.3 613.451 1697.86 C 616.655 1684.67 615.156 1668.87 615.158 1655.31 L 615.12 1593.44 L 614.961 1344.08 L 615.346 251.609 z"/>
<path transform="translate(0,0)" fill="rgb(7,24,50)" d="M 835.717 952.505 C 849.395 952.455 887.467 948.378 896.939 956.492 C 899.643 958.809 900.924 961.842 901.021 965.371 C 901.105 968.398 900.254 971.221 897.973 973.334 C 895.145 975.952 891.165 977.097 887.442 977.682 C 876.732 979.365 864.364 978.032 853.501 977.952 L 793.5 977.976 C 783.191 977.953 738.95 980.292 733.185 975.75 C 730.278 973.459 728.177 969.661 727.897 965.966 C 727.622 962.325 728.921 959.235 731.512 956.667 C 733.857 954.344 737.274 953.443 740.445 953.042 C 750.95 951.716 762.359 952.572 772.98 952.56 L 835.717 952.505 z"/>
<path transform="translate(0,0)" fill="rgb(7,24,50)" d="M 738.546 645.306 C 786.524 644.183 834.875 645.824 882.903 645.764 L 1118.73 644.951 C 1121.73 644.969 1124.65 645.423 1127.46 646.472 C 1131.61 648.02 1135.51 651.255 1137.12 655.472 C 1138.19 658.291 1138.02 660.978 1136.74 663.683 C 1135.1 667.168 1131.39 669.502 1127.86 670.571 C 1095.91 669.884 1063.85 670.444 1031.89 670.518 L 844.623 670.961 L 774.899 670.915 C 764.045 670.936 752.078 672.144 741.372 670.854 C 737.083 670.337 732.976 668.465 730.512 664.802 C 728.789 662.242 728.384 659.094 729.112 656.127 C 730.429 650.761 734.045 648.037 738.546 645.306 z"/>
<path transform="translate(0,0)" fill="rgb(7,24,50)" d="M 1333.84 850.465 C 1339.12 850.196 1346.54 850.016 1350.66 854.004 C 1353.34 856.593 1354.46 859.87 1354.38 863.533 C 1354.31 866.856 1353.05 870.15 1350.56 872.417 C 1347.28 875.418 1342.62 875.704 1338.39 875.949 C 1317.14 877.18 1295.14 876 1273.8 875.932 L 1151.28 875.862 L 749.464 876.009 C 744.66 876.013 737.46 876.708 733.215 874.179 C 730.115 872.333 728.504 867.382 728.141 864.002 C 727.783 860.674 728.66 856.932 731.174 854.57 C 733.963 851.949 738.136 851.562 741.769 851.327 C 759.123 850.205 777.196 851.157 794.625 851.115 L 903.814 850.979 L 1182.44 851.012 C 1232.85 850.994 1283.45 851.696 1333.84 850.465 z"/>
<path transform="translate(0,0)" fill="rgb(7,24,50)" d="M 736.737 749.158 C 783.232 747.413 831.68 749.032 878.36 749.025 L 1162.17 749.039 L 1285.97 749.015 C 1301.31 748.968 1330.42 746.893 1344 749.659 C 1347.67 750.406 1351.08 752.388 1352.93 755.726 C 1354.74 759.004 1354.52 763.326 1353.19 766.744 C 1351.51 771.081 1348.5 772.556 1344.44 774.353 C 1310.64 776.109 1276.01 774.429 1242.12 774.487 L 1037.31 774.874 L 840.297 774.802 C 808.598 774.808 776.09 776.575 744.48 774.912 C 739.246 774.637 733.224 773.238 729.927 768.767 C 728.139 766.341 727.654 763.394 728.274 760.479 C 729.373 755.313 732.554 752.08 736.737 749.158 z"/>
<path transform="translate(0,0)" fill="rgb(188,46,55)" d="M 792.504 327.365 C 792.646 327.345 792.788 327.314 792.931 327.304 C 821.13 325.264 848.286 332.071 870.611 349.908 A 115.541 115.541 0 0 1 913.653 427.703 C 916.908 459.456 906.438 487.958 886.366 512.472 A 112.52 112.52 0 0 1 811.248 552.953 C 781.389 555.116 754.093 549.276 730.252 530.377 C 706.15 511.27 691.585 485.204 688.089 454.608 C 684.579 423.898 694.258 393.705 713.447 369.654 C 733.148 344.962 761.411 330.898 792.504 327.365 z"/>
<path transform="translate(0,0)" fill="rgb(237,72,70)" d="M 789.715 340.365 C 815.182 337.977 839.903 343.09 860.653 358.489 C 882.619 374.789 896.461 397.005 900.332 424.127 C 904.155 450.921 897.89 476.638 881.578 498.256 C 863.345 522.42 840.083 536.325 810.244 540.603 C 784.448 543.538 760.847 537.151 739.939 521.636 C 718.597 505.799 703.915 480.474 700.182 454.198 C 696.554 428.66 704.871 400.855 720.514 380.525 C 737.752 358.121 761.667 343.887 789.715 340.365 z"/>
<path transform="translate(0,0)" fill="rgb(254,254,254)" d="M 755.832 375.158 C 781.497 374.965 825.688 370.117 847.096 384.748 A 43.2345 43.2345 0 0 1 865.66 413.367 A 39.9267 39.9267 0 0 1 858.707 443.796 C 849.178 457.21 834.954 463.278 819.256 465.716 C 809.531 466.574 799.892 466.594 790.141 466.579 C 789.939 481.039 790.216 495.739 788.606 510.115 C 779.818 511.275 766.174 512.918 758.079 508.916 C 753.82 502.28 755.785 391.082 755.832 375.158 z"/>
<path transform="translate(0,0)" fill="rgb(237,72,70)" d="M 789.992 399.153 C 801.672 399.045 814.212 398.929 823.74 406.829 C 827.343 409.816 830.453 414.204 830.801 419.002 C 831.269 425.48 827.673 432.674 823.459 437.325 C 812.988 444.171 801.932 442.773 790.035 442.55 L 789.992 399.153 z"/>
</svg>